<svg width="91" height="36" viewBox="0 0 91 36" fill="none" xmlns="http://www.w3.org/2000/svg">
<path d="M28.4908 10.1548C28.4908 12.2322 27.953 14.1385 26.8774 15.8737C25.8018 17.609 24.2373 19.0265 22.1839 20.1263C20.1306 21.2261 17.686 21.8737 14.8504 22.0692L13.2737 30.9043C12.6626 34.3014 11.0003 36 8.28689 36C6.79574 36 5.41459 35.5601 4.14345 34.6802C2.89675 33.8004 1.8945 32.4562 1.1367 30.6477C0.378899 28.8391 0 26.6151 0 23.9756C0 19.0143 0.794466 14.8106 2.3834 11.3646C3.99678 7.89409 6.14795 5.30346 8.83691 3.59267C11.5503 1.85743 14.5326 0.989817 17.7838 0.989817C20.0817 0.989817 22.0251 1.39308 23.614 2.19959C25.2274 3.00611 26.4374 4.10591 27.2441 5.49898C28.0752 6.86762 28.4908 8.41955 28.4908 10.1548ZM15.5104 18.2933C20.5217 17.6578 23.0273 15.055 23.0273 10.4847C23.0273 8.87169 22.4895 7.56415 21.4139 6.56212C20.3628 5.53564 18.725 5.0224 16.5005 5.0224C13.9826 5.0224 11.7825 5.8167 9.90027 7.4053C8.04244 8.99389 6.60018 11.2057 5.57349 14.0407C4.57124 16.8513 4.07011 20.0652 4.07011 23.6823C4.07011 25.1976 4.21678 26.5418 4.51012 27.7149C4.82791 28.888 5.21903 29.8045 5.68349 30.4644C6.17239 31.0998 6.63685 31.4175 7.07686 31.4175C7.68799 31.4175 8.15245 30.5743 8.47023 28.888L9.68027 21.9593C8.72691 21.8126 8.31134 21.7515 8.43357 21.776C7.70021 21.6538 7.22353 21.4338 7.00353 21.1161C6.78352 20.7739 6.67352 20.3462 6.67352 19.833C6.67352 19.2953 6.82019 18.8676 7.11353 18.5499C7.43132 18.2322 7.85911 18.0733 8.3969 18.0733C8.64135 18.0733 8.82469 18.0855 8.94691 18.11C9.5336 18.2077 9.98583 18.2688 10.3036 18.2933C10.6214 16.387 11.0736 13.833 11.6603 10.6314C11.807 9.80041 12.137 9.21385 12.6503 8.87169C13.1881 8.50509 13.8115 8.32179 14.5204 8.32179C15.3271 8.32179 15.9015 8.48065 16.2438 8.79837C16.6105 9.09165 16.7938 9.56823 16.7938 10.2281C16.7938 10.6191 16.7694 10.9369 16.7205 11.1813L15.5104 18.2933Z" fill="#090C1E"/>
<path d="M46.4537 20.7495C46.7714 20.7495 47.0159 20.9083 47.187 21.2261C47.3581 21.5438 47.4437 21.947 47.4437 22.4358C47.4437 23.609 47.0892 24.3055 46.3803 24.5255C44.9136 25.0387 43.3002 25.332 41.5402 25.4053C41.0757 27.4583 40.159 29.1079 38.7901 30.3544C37.4212 31.5764 35.8689 32.1874 34.1333 32.1874C32.6666 32.1874 31.4077 31.833 30.3565 31.1242C29.3298 30.4155 28.5476 29.4745 28.0098 28.3014C27.472 27.1283 27.2031 25.8574 27.2031 24.4888C27.2031 22.6314 27.5576 20.9817 28.2665 19.5397C28.9754 18.0733 29.9532 16.9369 31.1999 16.1303C32.4466 15.2994 33.8277 14.8839 35.3433 14.8839C37.2012 14.8839 38.6923 15.5316 39.8168 16.8269C40.9657 18.0978 41.638 19.6741 41.8335 21.556C42.9824 21.4827 44.3514 21.2383 45.9403 20.8228C46.1359 20.7739 46.307 20.7495 46.4537 20.7495ZM34.4267 28.3014C35.2089 28.3014 35.8811 27.9837 36.4434 27.3483C37.0301 26.7128 37.4212 25.7963 37.6167 24.5988C36.8589 24.0855 36.2723 23.4134 35.8567 22.5825C35.4656 21.7515 35.27 20.8717 35.27 19.943C35.27 19.5519 35.3067 19.1609 35.38 18.7699H35.1967C34.2189 18.7699 33.4 19.2464 32.7399 20.1996C32.1044 21.1283 31.7866 22.4481 31.7866 24.1589C31.7866 25.5031 32.0433 26.5295 32.5566 27.2383C33.0944 27.947 33.7177 28.3014 34.4267 28.3014Z" fill="#090C1E"/>
<path d="M59.1103 19.943C59.6481 19.943 60.1003 20.1385 60.467 20.5295C60.8581 20.8961 61.0537 21.3605 61.0537 21.9226C61.0537 22.2403 60.9804 22.5825 60.8337 22.9491C60.4426 23.8534 59.8925 24.611 59.1836 25.222C58.4747 25.833 57.6925 26.1385 56.8369 26.1385C56.1524 26.1385 55.5658 25.8941 55.0769 25.4053C54.6124 24.9165 54.3802 24.2566 54.3802 23.4257C54.3802 22.9613 54.4046 22.4603 54.4535 21.9226C54.5024 21.5316 54.5268 21.2627 54.5268 21.1161C54.5268 20.9206 54.4779 20.7739 54.3802 20.6762C54.3068 20.5784 54.2091 20.5295 54.0868 20.5295C53.7446 20.5295 53.2801 20.945 52.6935 21.776C52.1068 22.5825 51.5201 23.6578 50.9334 25.002C50.3467 26.3462 49.87 27.7637 49.5034 29.2546C49.2345 30.4277 48.9289 31.2098 48.5867 31.6008C48.2444 31.9919 47.6822 32.1874 46.9 32.1874C45.971 32.1874 45.311 31.6986 44.9199 30.721C44.5532 29.7434 44.3699 28.1792 44.3699 26.0285C44.3699 22.8513 44.8221 19.833 45.7266 16.9735C45.9466 16.2648 46.3011 15.7515 46.79 15.4338C47.3033 15.0916 48.0122 14.9206 48.9167 14.9206C49.4056 14.9206 49.7478 14.9817 49.9434 15.1039C50.1389 15.2261 50.2367 15.4582 50.2367 15.8004C50.2367 16.1914 50.0534 17.0713 49.6867 18.4399C49.4423 19.4175 49.2467 20.2729 49.1 21.0061C48.9534 21.7393 48.8311 22.6436 48.7333 23.7189C49.54 21.6171 50.4445 19.9063 51.4468 18.5866C52.449 17.2668 53.4268 16.3259 54.3802 15.7637C55.3335 15.2016 56.2013 14.9206 56.9836 14.9206C57.6925 14.9206 58.2303 15.1283 58.597 15.5438C58.9881 15.9348 59.1836 16.5214 59.1836 17.3035C59.1836 17.7678 59.0492 18.6477 58.7803 19.943H59.1103Z" fill="#090C1E"/>
<path d="M78.8051 23.8289C79.1229 23.8289 79.3674 23.9756 79.5385 24.2688C79.7341 24.5621 79.8318 24.9654 79.8318 25.4786C79.8318 26.4562 79.5996 27.2139 79.1351 27.7515C78.084 29.0468 76.9351 30.11 75.6884 30.9409C74.4417 31.7719 73.0116 32.1874 71.3983 32.1874C66.4115 32.1874 63.9181 28.6802 63.9181 21.666C63.9181 20.5906 63.9547 19.5031 64.0281 18.4033H62.598C61.8647 18.4033 61.3635 18.2688 61.0946 18C60.8502 17.7312 60.728 17.3035 60.728 16.7169C60.728 15.3483 61.278 14.664 62.378 14.664H64.4681C64.8836 11.9756 65.5192 9.51935 66.3748 7.29532C67.2304 5.07128 68.2571 3.29939 69.4549 1.97963C70.6771 0.659877 71.9849 0 73.3783 0C74.405 0 75.2117 0.452138 75.7984 1.35642C76.3851 2.26069 76.6784 3.39715 76.6784 4.76578C76.6784 8.55397 75.0895 11.8534 71.9116 14.664H76.0184C76.4095 14.664 76.6906 14.7495 76.8618 14.9206C77.0329 15.0916 77.1184 15.4094 77.1184 15.8737C77.1184 17.5601 75.7373 18.4033 72.975 18.4033H68.5015C68.4526 19.6253 68.4282 20.5784 68.4282 21.2627C68.4282 23.8045 68.7215 25.5886 69.3082 26.6151C69.9193 27.6415 70.8727 28.1548 72.1683 28.1548C73.2194 28.1548 74.1483 27.8371 74.955 27.2016C75.7617 26.5662 76.7151 25.613 77.8151 24.3422C78.1085 24 78.4385 23.8289 78.8051 23.8289ZM72.3883 3.51935C72.0216 3.51935 71.6061 3.98371 71.1416 4.91242C70.7016 5.8167 70.2738 7.08758 69.8582 8.72505C69.4671 10.3381 69.1371 12.1344 68.8682 14.1141C70.3105 12.8676 71.386 11.4745 72.095 9.93483C72.8283 8.37067 73.195 6.95316 73.195 5.68228C73.195 4.24033 72.9261 3.51935 72.3883 3.51935Z" fill="#090C1E"/>
<path d="M83.0431 32.1874C81.6009 32.1874 80.3664 31.833 79.3397 31.1242C78.3374 30.391 77.5796 29.4379 77.0663 28.2648C76.5529 27.0917 76.2963 25.833 76.2963 24.4888C76.2963 22.6314 76.6385 20.9817 77.323 19.5397C78.0319 18.0733 78.9852 16.9369 80.183 16.1303C81.3808 15.2994 82.7253 14.8839 84.2165 14.8839C85.6587 14.8839 86.8932 15.2505 87.9199 15.9837C88.9466 16.6925 89.7166 17.6334 90.23 18.8065C90.7433 19.9796 91 21.2383 91 22.5825C91 24.4399 90.6456 26.1018 89.9366 27.5682C89.2277 29.0102 88.2621 30.1466 87.0399 30.9776C85.8421 31.7841 84.5098 32.1874 83.0431 32.1874ZM83.4465 28.2281C84.2776 28.2281 84.9743 27.776 85.5365 26.8717C86.1232 25.9674 86.4165 24.6477 86.4165 22.9124C86.4165 21.5682 86.1721 20.554 85.6832 19.8697C85.1943 19.1853 84.6076 18.8432 83.9231 18.8432C83.0431 18.8432 82.3098 19.2953 81.7231 20.1996C81.1608 21.0794 80.8797 22.3992 80.8797 24.1589C80.8797 25.5519 81.1242 26.5784 81.6131 27.2383C82.102 27.8982 82.7131 28.2281 83.4465 28.2281Z" fill="#090C1E"/>
</svg>
